<?xml version="1.0" encoding="utf-8"?>
<!-- Generator: Adobe Illustrator 22.0.1, SVG Export Plug-In . SVG Version: 6.00 Build 0)  -->
<svg version="1.1" xmlns="http://www.w3.org/2000/svg" xmlns:xlink="http://www.w3.org/1999/xlink" x="0px" y="0px"
	 viewBox="0 0 512 512" style="enable-background:new 0 0 512 512;" xml:space="preserve">
<style type="text/css">
	.st0{fill:#71BCFF;}
	.st1{fill:#E49696;}
	.st2{fill:#EFC971;}
	.st3{fill:#77D284;}
	.st4{fill:#7F78BB;}
	.st5{fill:#518FF4;}
	.st6{fill:#EAA9B9;}
	.st7{fill:#F5DE92;}
	.st8{fill:#96EBE4;}
	.st9{fill:#E6AFC1;}
	.st10{fill:#5596C6;}
	.st11{fill:#74B1F6;}
	.st12{fill:#F5E5BD;}
	.st13{fill:none;stroke:#5E8783;stroke-width:8;stroke-linecap:round;stroke-miterlimit:10;}
	.st14{fill:#679795;}
	.st15{fill:#74AAAA;}
	.st16{fill:#7FBDBF;}
	.st17{fill:#D3F8F5;}
	.st18{fill:#7BB5B2;}
	.st19{fill:#B7F1F1;}
	.st20{fill:#A8DBD9;}
	.st21{fill:none;stroke:#748BA4;stroke-width:8;stroke-linecap:round;stroke-miterlimit:10;}
	.st22{fill:#748BA4;}
	.st23{fill:#82A0C8;}
	.st24{fill:#7C96B6;}
	.st25{fill:#8DAADE;}
	.st26{fill:#A0BDE5;}
	.st27{fill:none;stroke:#99536E;stroke-width:8;stroke-linecap:round;stroke-miterlimit:10;}
	.st28{fill:#99536E;}
	.st29{fill:#A35B7B;}
	.st30{fill:#E393AC;}
	.st31{fill:#E06E8A;}
	.st32{fill:#B45B77;}
	.st33{fill:#EEC8D7;}
	.st34{fill:#E8B9B9;}
	.st35{fill:#DA4545;}
	.st36{fill:#A63F3F;}
	.st37{fill:#DB5757;}
	.st38{fill:#ECF6FF;}
	.st39{fill:#DB50B1;}
	.st40{fill:#B24798;}
	.st41{fill:#E093D2;}
	.st42{fill:#A3CCF8;}
	.st43{fill:#CBE7FA;}
	.st44{fill:#AD3C3C;}
	.st45{fill:#DD88A0;}
	.st46{fill:#C47E94;}
	.st47{fill:#7673AB;}
	.st48{fill:#D6B168;}
	.st49{fill:#75ACAC;}
	.st50{fill:#FFFFFF;}
	.st51{fill:#E3B6C5;}
	.st52{fill:#DE6F6F;}
	.st53{fill:none;}
	.st54{fill:#90BFEA;}
	.st55{fill:#DB6E6E;}
	.st56{fill:#B13E3E;}
	.st57{fill:#C66666;}
	.st58{fill:#CF98A8;}
	.st59{fill:#F1D4DD;}
	.st60{fill:#B8899A;}
	.st61{fill:#7370AA;}
	.st62{fill:#8A87CE;}
	.st63{fill:#DA6464;}
	.st64{fill:#589960;}
	.st65{fill:#67B575;}
	.st66{fill:#C78321;}
	.st67{fill:#D7C431;}
	.st68{fill:#E59B25;}
	.st69{fill:#F6E637;}
	.st70{fill:#D3AE68;}
	.st71{fill:#1C314E;}
	.st72{fill:#FFFDFC;}
	.st73{fill:#DC8282;}
	.st74{fill:#DBDBDB;}
	.st75{fill:#CC6785;}
	.st76{fill:#D29FAE;}
	.st77{fill:#C4C4C4;}
	.st78{fill:#B13D3D;}
	.st79{fill:#9D3A3A;}
	.st80{fill:#F3DDB1;}
	.st81{fill:#D6B269;}
	.st82{fill:#C6819A;}
	.st83{fill:#B77C94;}
	.st84{fill:#DACFB5;}
	.st85{fill:#E9DCBC;}
	.st86{fill:#7471AB;}
	.st87{fill:#DE9BBA;}
	.st88{fill:#D189A6;}
	.st89{fill:#C2E1FD;}
	.st90{fill:#BC6383;}
	.st91{fill:#9B99D9;}
	.st92{fill:#F4E2B1;}
	.st93{fill:#B96281;}
	.st94{fill:#B08979;}
	.st95{fill:#D9A2B2;}
	.st96{fill:#F0D0D9;}
	.st97{fill:#DCBFC8;}
	.st98{fill:#708761;}
	.st99{fill:#779366;}
	.st100{fill:#9FBF8B;}
	.st101{fill:#A37F72;}
	.st102{fill:#D59EAE;}
	.st103{fill:#BC6381;}
	.st104{fill:#716EA8;}
	.st105{fill:#8481B6;}
	.st106{fill:#918BC6;}
	.st107{fill:#76AFAF;}
	.st108{fill:#BEDBD8;}
	.st109{fill:#EAB9C9;}
	.st110{fill:#A03B3B;}
	.st111{fill:#893535;}
	.st112{fill:#EFCED8;}
	.st113{fill:#F7EB83;}
	.st114{fill:#F1D7D7;}
	.st115{fill:#A35773;}
	.st116{fill:#DCC832;}
	.st117{fill:#BD8F9E;}
	.st118{fill:#6F6DA6;}
	.st119{fill:#D7A0B0;}
	.st120{fill:#8C89CC;}
	.st121{fill:none;stroke:#FFFFFF;stroke-width:8;stroke-linecap:round;stroke-miterlimit:10;}
	.st122{fill:#B53C3C;}
	.st123{fill:#C5E3DF;}
	.st124{fill:#956C42;}
	.st125{fill:#BD8E4D;}
	.st126{fill:#A97C47;}
	.st127{fill:#F5DEAE;}
	.st128{fill:#EDC495;}
	.st129{fill:#6F6DA4;}
	.st130{fill:#704A42;}
	.st131{fill:#A57A46;}
	.st132{fill:#C4DEF9;}
	.st133{fill:#B4CDE2;}
	.st134{fill:#8F8CD2;}
	.st135{fill:#A6BDCB;}
	.st136{fill:#9EB3BE;}
	.st137{fill:#9BAEB9;}
	.st138{fill:#71A5A5;}
	.st139{fill:none;stroke:#31315D;stroke-width:8;stroke-miterlimit:10;}
	.st140{fill:#C1F6F6;}
	.st141{fill:#C66482;}
	.st142{fill:#ABD6D4;}
	.st143{fill:#A5597B;}
	.st144{fill:#ECCBD5;}
	.st145{fill:#3E3A73;}
	.st146{fill:#453D80;}
	.st147{fill:#31315D;}
	.st148{fill:#D3BEC5;}
	.st149{fill:#7370A9;}
	.st150{fill:#A0526B;}
	.st151{fill:#D3AA5F;}
	.st152{fill:#F1D69F;}
	.st153{fill:#CC9180;}
	.st154{fill:#E4A38D;}
	.st155{fill:#E0A693;}
	.st156{fill:#EDBCA8;}
	.st157{fill:#E0A745;}
	.st158{fill:#3C3970;}
	.st159{fill:#4E4991;}
	.st160{fill:#B3ADFB;}
	.st161{fill:#B9863F;}
	.st162{fill:#CD9642;}
	.st163{fill:#BA893F;}
	.st164{fill:#A97C3D;}
	.st165{fill:#182A3F;}
	.st166{fill:none;stroke:#805D31;stroke-width:12;stroke-linecap:round;stroke-miterlimit:10;}
	.st167{fill:#EAC382;}
	.st168{fill:#467ABC;}
	.st169{fill:#D19943;}
	.st170{fill:#C26280;}
	.st171{fill:#CD97A7;}
	.st172{fill:#DEDCDC;}
	.st173{fill:#A53636;}
	.st174{fill:#D6D6D6;}
	.st175{fill:#A67B47;}
	.st176{fill:#A0546F;}
	.st177{fill:#B8D6D3;}
	.st178{fill:#A19EF2;}
	.st179{fill:none;stroke:#453D80;stroke-width:8;stroke-linecap:round;stroke-miterlimit:10;}
	.st180{fill:#E08DA7;}
	.st181{fill:#DA6A19;}
	.st182{fill:#A7F6F6;}
	.st183{fill:#BE6480;}
	.st184{fill:#C2809A;}
	.st185{fill:#C06581;}
	.st186{fill:#A8607D;}
	.st187{fill:#618C88;}
	.st188{fill:#676797;}
	.st189{fill:#D2FFFC;}
	.st190{fill:#3C3870;}
	.st191{fill:#BFE3E0;}
	.st192{fill:#DEC888;}
	.st193{fill:#9A9AE4;}
	.st194{fill:#689795;}
	.st195{fill:#A1E8E8;}
	.st196{fill:#C3A062;}
	.st197{fill:#C5A162;}
	.st198{fill:#EDC771;}
	.st199{fill:#DBC586;}
	.st200{fill:#D1D1D1;}
	.st201{fill:#AF8F5B;}
	.st202{fill:#F6EAC7;}
	.st203{fill:#7F78B9;}
	.st204{fill:#E9A7B7;}
	.st205{fill:#8A87CA;}
	.st206{fill:#ECC6D5;}
	.st207{fill:#D1F6F3;}
	.st208{fill:#D69EAC;}
	.st209{fill:#AC8494;}
	.st210{fill:#BB8D9C;}
	.st211{fill:#7F7FBA;}
	.st212{fill:#C3E3DF;}
	.st213{fill:none;stroke:#5E8581;stroke-width:8;stroke-linecap:round;stroke-miterlimit:10;}
	.st214{fill:#669593;}
	.st215{fill:#74A8A8;}
	.st216{fill:#7EBBBC;}
	.st217{fill:#7AB3B0;}
	.st218{fill:#B5EFEF;}
	.st219{fill:#A6D9D7;}
	.st220{fill:#BD8F9F;}
	.st221{fill:#D29CAC;}
	.st222{fill:none;stroke:#98536E;stroke-width:8;stroke-linecap:round;stroke-miterlimit:10;}
	.st223{fill:#993737;}
	.st224{fill:#AC3939;}
	.st225{fill:#C3E1DD;}
	.st226{fill:#E5CE8C;}
	.st227{fill:#BF9869;}
	.st228{fill:#D3A971;}
	.st229{fill:#FBF4DD;}
	.st230{fill:#A35974;}
	.st231{fill:#73AAAA;}
	.st232{fill:#A55874;}
	.st233{fill:#E8BAAD;}
	.st234{fill:#DA9B8A;}
	.st235{fill:#D9B46B;}
	.st236{fill:#A36C56;}
	.st237{fill:#936252;}
	.st238{fill:#AB705D;}
	.st239{fill:#8A5C4D;}
	.st240{fill:#805649;}
	.st241{fill:#D3A29A;}
	.st242{fill:#AB5977;}
	.st243{fill:#B53F6A;}
	.st244{fill:#81574B;}
	.st245{fill:#F0D2DC;}
	.st246{fill:#93D4CF;}
	.st247{fill:#B6FBFB;}
	.st248{fill:#E0B96C;}
	.st249{fill:#A83A3A;}
	.st250{fill:#793131;}
	.st251{fill:#873333;}
	.st252{fill:#722E2E;}
	.st253{fill:#B53F3F;}
	.st254{fill:#E09393;}
	.st255{fill:#C4B180;}
	.st256{fill:#B19F76;}
	.st257{fill:#F3DC90;}
	.st258{fill:#E3CC8B;}
	.st259{fill:#774F43;}
	.st260{fill:#624038;}
	.st261{fill:#90FF9A;}
	.st262{fill:#91D2CD;}
	.st263{fill:#B4F9F9;}
	.st264{fill:#BB8C4D;}
	.st265{fill:#DE6E88;}
	.st266{fill:#BA6381;}
	.st267{fill:#B25B77;}
	.st268{fill:#9DD6D3;}
	.st269{fill:#B95F7C;}
	.st270{fill:#F3D5DF;}
	.st271{fill:#B9D9D6;}
	.st272{fill:#A9C7C4;}
	.st273{fill:#71A7A7;}
	.st274{fill:#833232;}
	.st275{fill:#9B3A3A;}
	.st276{fill:#752F2F;}
	.st277{fill:#B53E3E;}
	.st278{fill:#B58E9D;}
	.st279{fill:#BB909F;}
	.st280{fill:#CD99A8;}
	.st281{fill:#F2D9E1;}
	.st282{fill:#9BD4D1;}
	.st283{fill:#B2F7F7;}
	.st284{fill:#F1DA8E;}
	.st285{fill:#F2E0AF;}
	.st286{fill:#F9F9FF;}
	.st287{fill:#CA8F80;}
	.st288{fill:#E2A18B;}
	.st289{fill:#E6B8AB;}
	.st290{fill:#D89988;}
	.st291{fill:#D7B26B;}
	.st292{fill:#8D8ACE;}
	.st293{fill:#9FD6D2;}
	.st294{fill:#B3F3F0;}
	.st295{fill:#C8FFFF;}
	.st296{fill:#F4DAA4;}
	.st297{fill:#BFBFBF;}
	.st298{fill:#D7A2B2;}
	.st299{fill:#D4D4D4;}
	.st300{fill:#EDD094;}
	.st301{fill:#BF8E9D;}
	.st302{fill:#AA8190;}
	.st303{fill:#D69EAE;}
	.st304{fill:#AD3D3D;}
	.st305{fill:#8986CE;}
	.st306{fill:#B24B6B;}
	.st307{fill:#EFCD88;}
	.st308{fill:#F4E9CC;}
	.st309{fill:#CFAA66;}
	.st310{fill:#F8E9C9;}
	.st311{fill:#3B386E;}
	.st312{fill:#AA3939;}
	.st313{fill:#67433B;}
	.st314{fill:#CF9AAA;}
	.st315{fill:#C46583;}
	.st316{fill:#9491D7;}
	.st317{fill:#8784C9;}
	.st318{fill:#FBFBFB;}
	.st319{fill:#D3BE80;}
	.st320{fill:none;stroke:#453D80;stroke-width:8;stroke-miterlimit:10;}
	.st321{fill:#C591A0;}
	.st322{fill:#F1D7DF;}
	.st323{fill:#AD7F8E;}
	.st324{fill:#D8C3CA;}
	.st325{fill:#DFA868;}
	.st326{fill:#C66684;}
	.st327{fill:#C7C7C7;}
	.st328{fill:#AA5F80;}
	.st329{fill:#A75770;}
	.st330{fill:#93506A;}
	.st331{fill:#D1AC66;}
	.st332{fill:#F4E0B8;}
	.st333{fill:#F4D7E1;}
	.st334{fill:#EECA80;}
	.st335{fill:#C0DFFB;}
	.st336{fill:#DC5E5E;}
	.st337{fill:#CD9942;}
	.st338{fill:#E1AA46;}
	.st339{fill:#F4D8A2;}
	.st340{fill:#27918E;}
	.st341{fill:#29A3A3;}
	.st342{fill:#91D9D9;}
	.st343{fill:#BFA94C;}
	.st344{fill:#D3BA53;}
	.st345{fill:#F0E182;}
	.st346{fill:#EDD458;}
	.st347{fill:#AB7E47;}
	.st348{fill:#886358;}
	.st349{fill:#E3B47A;}
	.st350{fill:#413D79;}
	.st351{fill:#B76180;}
	.st352{fill:none;stroke:#1C314E;stroke-width:8;stroke-linecap:round;stroke-miterlimit:10;}
	.st353{fill:#E08F8D;}
	.st354{fill:#CFA0B0;}
	.st355{fill:#DC809F;}
	.st356{fill:#CF5181;}
	.st357{fill:#6967BA;}
	.st358{fill:#BC537D;}
	.st359{fill:#C2DCF7;}
	.st360{fill:#B2CBE0;}
	.st361{fill:#A4BBC9;}
	.st362{fill:#9CB0BC;}
	.st363{fill:#99ACB7;}
	.st364{fill:#559562;}
	.st365{fill:#4D8556;}
	.st366{fill:#453D7F;}
	.st367{fill:#57529E;}
	.st368{fill:#B8863C;}
	.st369{fill:#DEA545;}
	.st370{fill:#C46682;}
	.st371{fill:#B1607F;}
	.st372{fill:#A15B7B;}
	.st373{fill:#75AAAA;}
	.st374{fill:#EBC4D5;}
	.st375{fill:#866358;}
	.st376{fill:#DE8D8B;}
	.st377{fill:#BA883C;}
	.st378{fill:#569762;}
	.st379{fill:#4E8756;}
	.st380{fill:#5752A0;}
	.st381{fill:#B36080;}
	.st382{fill:#EDC6D7;}
	.st383{fill:#D19AAA;}
	.st384{fill:#E7B5B5;}
	.st385{fill:#676795;}
	.st386{fill:#E3B469;}
	.st387{fill:#7673AD;}
</style>
<g id="BULINE">
	<circle id="XMLID_1443_" class="st11" cx="256" cy="256" r="256"/>
</g>
<g id="Icons">
	<g id="XMLID_2427_">
		<g id="XMLID_3295_">
			<path id="XMLID_3300_" class="st31" d="M395,127.3l-19.9,19.9l-20.2,20.2c-5.1,5.1-13.3,5.1-18.4,0l-40.1-40.1
				c-6.2-6.2-9.4-14.4-9.4-22.6c0-8.2,3.1-16.4,9.4-22.6c5.1-5.1,11.5-8.1,18.1-9.1c1.5-0.2,3-0.3,4.5-0.3c8.2,0,16.4,3.1,22.6,9.4
				c2.3,2.3,5.9,2.3,8.1,0c6.2-6.2,14.4-9.4,22.6-9.4c8.2,0,16.4,3.1,22.6,9.4C407.5,94.5,407.5,114.8,395,127.3z"/>
			<path id="XMLID_3299_" class="st90" d="M395,127.3l-19.9,19.9l-20.2,20.2c-5.1,5.1-13.3,5.1-18.4,0l-40.1-40.1
				c-6.2-6.2-9.4-14.4-9.4-22.6c0-8.2,3.1-16.4,9.4-22.6c5.1-5.1,11.5-8.1,18.1-9.1C314.5,73,340.6,123.7,395,127.3z"/>
			<path id="XMLID_3298_" class="st32" d="M375.1,147.2l-20.2,20.2c-5.1,5.1-13.3,5.1-18.4,0l-40.1-40.1c-6.2-6.2-9.4-14.4-9.4-22.6
				c0-8.2,3.1-16.4,9.4-22.6c5.1-5.1,11.5-8.1,18.1-9.1v0C314.5,73,307.2,133.1,375.1,147.2z"/>
			
				<ellipse id="XMLID_3297_" transform="matrix(0.7741 -0.6331 0.6331 0.7741 31.0893 263.2365)" class="st33" cx="384.4" cy="88.1" rx="8.4" ry="10.5"/>
			
				<ellipse id="XMLID_3296_" transform="matrix(0.7741 -0.6331 0.6331 0.7741 24.7052 273.0594)" class="st33" cx="395" cy="101.9" rx="3.5" ry="4.4"/>
		</g>
		<g id="XMLID_3289_">
			<path id="XMLID_3294_" class="st31" d="M215.8,445.8L201,460.6l-15.1,15.1c-3.8,3.8-9.9,3.8-13.7,0l-29.9-29.9
				c-4.7-4.7-7-10.7-7-16.8s2.3-12.2,7-16.8c3.8-3.8,8.6-6,13.5-6.7c1.1-0.2,2.2-0.2,3.3-0.2c6.1,0,12.2,2.3,16.8,7
				c1.7,1.7,4.4,1.7,6.1,0c4.7-4.7,10.7-7,16.8-7c6.1,0,12.2,2.3,16.8,7C225.1,421.4,225.1,436.5,215.8,445.8z"/>
			<path id="XMLID_3293_" class="st90" d="M215.8,445.8L201,460.6l-15.1,15.1c-3.8,3.8-9.9,3.8-13.7,0l-29.9-29.9
				c-4.7-4.7-7-10.7-7-16.8s2.3-12.2,7-16.8c3.8-3.8,8.6-6,13.5-6.7C155.9,405.4,175.3,443.2,215.8,445.8z"/>
			<path id="XMLID_3292_" class="st32" d="M201,460.6l-15.1,15.1c-3.8,3.8-9.9,3.8-13.7,0l-29.9-29.9c-4.7-4.7-7-10.7-7-16.8
				s2.3-12.2,7-16.8c3.8-3.8,8.6-6,13.5-6.7v0C155.9,405.4,150.4,450.1,201,460.6z"/>
			
				<ellipse id="XMLID_3291_" transform="matrix(0.7741 -0.6331 0.6331 0.7741 -216.786 225.7491)" class="st33" cx="207.9" cy="416.6" rx="6.3" ry="7.8"/>
			
				<ellipse id="XMLID_3290_" transform="matrix(0.7741 -0.6331 0.6331 0.7741 -221.5402 233.0641)" class="st33" cx="215.8" cy="427" rx="2.6" ry="3.3"/>
		</g>
		<g id="XMLID_3283_">
			<path id="XMLID_3288_" class="st31" d="M114.8,207.3L100,222.1l-15.1,15.1c-3.8,3.8-9.9,3.8-13.7,0l-29.9-29.9
				c-4.7-4.7-7-10.7-7-16.8c0-6.1,2.3-12.2,7-16.8c3.8-3.8,8.6-6,13.5-6.7c1.1-0.2,2.2-0.2,3.3-0.2c6.1,0,12.2,2.3,16.8,7
				c1.7,1.7,4.4,1.7,6.1,0c4.7-4.7,10.7-7,16.8-7c6.1,0,12.2,2.3,16.8,7C124.1,182.9,124.1,198,114.8,207.3z"/>
			<path id="XMLID_3287_" class="st90" d="M114.8,207.3L100,222.1l-15.1,15.1c-3.8,3.8-9.9,3.8-13.7,0l-29.9-29.9
				c-4.7-4.7-7-10.7-7-16.8c0-6.1,2.3-12.2,7-16.8c3.8-3.8,8.6-6,13.5-6.7C54.8,166.8,74.3,204.6,114.8,207.3z"/>
			<path id="XMLID_3286_" class="st32" d="M100,222.1l-15.1,15.1c-3.8,3.8-9.9,3.8-13.7,0l-29.9-29.9c-4.7-4.7-7-10.7-7-16.8
				c0-6.1,2.3-12.2,7-16.8c3.8-3.8,8.6-6,13.5-6.7v0C54.8,166.8,49.4,211.6,100,222.1z"/>
			
				<ellipse id="XMLID_3285_" transform="matrix(0.7741 -0.6331 0.6331 0.7741 -88.5739 107.9096)" class="st33" cx="106.9" cy="178.1" rx="6.3" ry="7.8"/>
			
				<ellipse id="XMLID_3284_" transform="matrix(0.7741 -0.6331 0.6331 0.7741 -93.328 115.2246)" class="st33" cx="114.8" cy="188.4" rx="2.6" ry="3.3"/>
		</g>
		<g id="XMLID_2431_">
			
				<rect id="XMLID_3282_" x="160.5" y="73.7" transform="matrix(0.7783 -0.6279 0.6279 0.7783 -68.2276 153.4919)" class="st124" width="45.5" height="199.3"/>
			<path id="XMLID_3281_" class="st125" d="M352.4,250.8c-1.3-7.8-4.4-15-9.3-21.2c-3.5-4.3-7.6-7.8-12.3-10.5
				c1.1,3.4,1.8,7,2.2,10.7C334,240.7,342.1,249.1,352.4,250.8z"/>
			<path id="XMLID_3280_" class="st126" d="M400.9,278c0.3,0.1,0.7,0.1,1,0.2C401.5,278.1,401.2,278.1,400.9,278z"/>
			<path id="XMLID_3279_" class="st126" d="M397.8,277.4c0.3,0,0.5,0.1,0.8,0.1C398.3,277.5,398.1,277.5,397.8,277.4z"/>
			<path id="XMLID_3278_" class="st126" d="M395.2,277c0.3,0,0.7,0.1,1,0.1C395.9,277.1,395.5,277.1,395.2,277z"/>
			<path id="XMLID_3277_" class="st126" d="M272.2,216.7c0.5-0.2,0.9-0.3,1.4-0.5C273.2,216.4,272.7,216.5,272.2,216.7z"/>
			<path id="XMLID_3276_" class="st126" d="M392.7,276.7c0.3,0,0.7,0.1,1,0.1C393.4,276.8,393.1,276.7,392.7,276.7z"/>
			<path id="XMLID_3275_" class="st126" d="M390.3,276.4c0.3,0,0.6,0.1,0.8,0.1C390.9,276.5,390.6,276.5,390.3,276.4z"/>
			<path id="XMLID_3274_" class="st126" d="M275.6,215.6c0.5-0.2,1-0.3,1.5-0.4C276.6,215.3,276.1,215.5,275.6,215.6z"/>
			<path id="XMLID_3273_" class="st126" d="M405.5,279c0.4,0.1,0.8,0.2,1.2,0.3C406.3,279.2,405.9,279.1,405.5,279z"/>
			<path id="XMLID_3272_" class="st126" d="M269,217.8c0.5-0.2,0.9-0.3,1.4-0.5C269.9,217.5,269.4,217.7,269,217.8z"/>
			<path id="XMLID_3268_" class="st126" d="M262.5,220.4c0.3-0.1,0.6-0.2,0.9-0.4C263.1,220.2,262.8,220.3,262.5,220.4z"/>
			<path id="XMLID_3260_" class="st126" d="M407.8,279.7c0.4,0.1,0.8,0.2,1.1,0.3C408.6,279.9,408.2,279.8,407.8,279.7z"/>
			<path id="XMLID_3250_" class="st126" d="M411,280.6c0.4,0.1,0.8,0.3,1.3,0.4C411.8,280.9,411.4,280.7,411,280.6z"/>
			<path id="XMLID_3249_" class="st126" d="M265.7,219.1c0.4-0.2,0.9-0.3,1.3-0.5C266.6,218.7,266.2,218.9,265.7,219.1z"/>
			<path id="XMLID_3248_" class="st126" d="M403.2,278.5c0.4,0.1,0.8,0.2,1.1,0.3C403.9,278.7,403.6,278.6,403.2,278.5z"/>
			<path id="XMLID_3247_" class="st126" d="M387.4,276.2c0.1,0,0.3,0,0.4,0C387.7,276.2,387.6,276.2,387.4,276.2z"/>
			<path id="XMLID_3246_" class="st126" d="M289.1,212.7c0.6-0.1,1.3-0.2,1.9-0.3C290.4,212.5,289.7,212.6,289.1,212.7z"/>
			<path id="XMLID_3245_" class="st126" d="M317.4,213.8c3.9,1,7.7,2.4,11.1,4.2C325.1,216.2,321.4,214.8,317.4,213.8z"/>
			<path id="XMLID_3244_" class="st126" d="M413.2,281.3c0.4,0.1,0.9,0.3,1.3,0.5C414.1,281.6,413.6,281.5,413.2,281.3z"/>
			<path id="XMLID_3243_" class="st126" d="M291.7,212.3c1.5-0.2,3-0.3,4.5-0.4C294.7,212,293.2,212.2,291.7,212.3z"/>
			<path id="XMLID_3242_" class="st126" d="M279.8,214.5c0.5-0.1,1.1-0.2,1.6-0.4C280.9,214.2,280.4,214.4,279.8,214.5z"/>
			<path id="XMLID_3241_" class="st126" d="M302.4,211.8c0.7,0,1.4,0,2.2,0.1C303.9,211.8,303.1,211.8,302.4,211.8z"/>
			<path id="XMLID_3240_" class="st126" d="M315,213.2c0.7,0.2,1.5,0.3,2.2,0.5C316.5,213.5,315.7,213.4,315,213.2z"/>
			<path id="XMLID_3239_" class="st126" d="M296.6,211.9c0.7,0,1.4-0.1,2.1-0.1C298.1,211.9,297.4,211.9,296.6,211.9z"/>
			<path id="XMLID_3238_" class="st126" d="M328.7,218c0.7,0.3,1.3,0.7,2,1.1C330.1,218.7,329.4,218.4,328.7,218z"/>
			<path id="XMLID_3234_" class="st126" d="M283,213.8c0.6-0.1,1.1-0.2,1.7-0.3C284.1,213.5,283.6,213.6,283,213.8z"/>
			<path id="XMLID_3232_" class="st126" d="M381.9,275.9c0.3,0,0.6,0,0.9,0C382.5,276,382.2,275.9,381.9,275.9z"/>
			<path id="XMLID_3231_" class="st126" d="M352.4,250.8c0.1,0.6,0.2,1.2,0.3,1.9C352.6,252,352.5,251.4,352.4,250.8z"/>
			<path id="XMLID_3230_" class="st126" d="M384.5,276c0.3,0,0.6,0,0.9,0C385.1,276,384.8,276,384.5,276z"/>
			<path id="XMLID_3229_" class="st126" d="M286.1,213.2c0.6-0.1,1.2-0.2,1.8-0.3C287.3,213,286.7,213.1,286.1,213.2z"/>
			<path id="XMLID_3228_" class="st126" d="M352.7,252.7c0.1,0.6,0.2,1.3,0.2,1.9C352.9,254,352.8,253.4,352.7,252.7z"/>
			<path id="XMLID_3227_" class="st126" d="M379.4,275.9c0.3,0,0.5,0,0.8,0C379.9,275.9,379.6,275.9,379.4,275.9z"/>
			<path id="XMLID_3226_" class="st126" d="M258.4,222.3c0.3-0.2,0.6-0.3,1-0.5C259,222,258.7,222.2,258.4,222.3z"/>
			<path id="XMLID_3225_" class="st126" d="M314.7,213.1c-3.1-0.6-6.4-1.1-9.7-1.2C308.3,212.1,311.5,212.5,314.7,213.1z"/>
			<path id="XMLID_3224_" class="st126" d="M431.7,290.2c0.5,0.3,0.9,0.6,1.4,0.9C432.6,290.8,432.2,290.5,431.7,290.2z"/>
			<path id="XMLID_3223_" class="st126" d="M251.7,225.9c0.4-0.2,0.8-0.4,1.2-0.7C252.4,225.4,252.1,225.7,251.7,225.9z"/>
			<path id="XMLID_3222_" class="st126" d="M426.7,287.2c1.6,0.9,3.2,1.8,4.8,2.8C429.9,289.1,428.3,288.1,426.7,287.2z"/>
			<path id="XMLID_3221_" class="st126" d="M443.4,299.2c0.4,0.3,0.7,0.7,1.1,1C444.1,299.9,443.7,299.5,443.4,299.2z"/>
			<path id="XMLID_3169_" class="st126" d="M441.2,297.3c-1.9-1.6-3.8-3.2-5.9-4.6c1.6,1.1,3.1,2.3,4.6,3.6
				C440.4,296.6,440.8,296.9,441.2,297.3z"/>
			<path id="XMLID_3168_" class="st126" d="M447.5,303.3c0.2,0.2,0.4,0.5,0.7,0.7C448,303.8,447.7,303.6,447.5,303.3z"/>
			<path id="XMLID_3167_" class="st126" d="M441.7,297.7c0.4,0.3,0.8,0.7,1.1,1C442.4,298.3,442.1,298,441.7,297.7z"/>
			<path id="XMLID_3166_" class="st126" d="M248.5,227.8c0.3-0.2,0.7-0.4,1-0.6C249.1,227.4,248.8,227.5,248.5,227.8z"/>
			<path id="XMLID_3165_" class="st126" d="M433.6,291.4c0.5,0.3,0.9,0.6,1.4,0.9C434.5,292,434,291.7,433.6,291.4z"/>
			<path id="XMLID_3164_" class="st126" d="M445.9,301.6c0.2,0.2,0.5,0.5,0.7,0.7C446.4,302.1,446.1,301.8,445.9,301.6z"/>
			<path id="XMLID_3163_" class="st126" d="M299.6,211.8c0.7,0,1.4,0,2.1,0C301,211.8,300.3,211.8,299.6,211.8z"/>
			<path id="XMLID_3162_" class="st126" d="M449.2,305.2c0.2,0.2,0.4,0.4,0.5,0.6C449.6,305.6,449.4,305.4,449.2,305.2z"/>
			<path id="XMLID_3161_" class="st126" d="M415.4,282.1c0.4,0.2,0.9,0.3,1.3,0.5C416.3,282.4,415.8,282.3,415.4,282.1z"/>
			<path id="XMLID_3160_" class="st126" d="M422.7,285.2c0.5,0.2,0.9,0.5,1.4,0.7C423.7,285.7,423.2,285.4,422.7,285.2z"/>
			<path id="XMLID_3158_" class="st126" d="M417.5,282.9c1.6,0.6,3.2,1.3,4.7,2C420.6,284.2,419.1,283.6,417.5,282.9z"/>
			<path id="XMLID_3157_" class="st126" d="M424.8,286.2c0.5,0.2,0.9,0.5,1.4,0.7C425.7,286.7,425.2,286.5,424.8,286.2z"/>
			<path id="XMLID_3156_" class="st126" d="M254.9,224.1c0.4-0.2,0.8-0.4,1.2-0.6C255.7,223.7,255.3,223.9,254.9,224.1z"/>
			<path id="XMLID_3155_" class="st126" d="M449.7,305.8c0.5,0.6,1,1.2,1.5,1.8C450.7,307,450.2,306.4,449.7,305.8z"/>
			<path id="XMLID_3154_" class="st126" d="M444.4,300.2c0.5,0.5,1,0.9,1.4,1.4C445.4,301.1,444.9,300.7,444.4,300.2z"/>
			<path id="XMLID_3153_" class="st126" d="M446.6,302.3c0.3,0.3,0.6,0.7,0.9,1C447.2,303,446.9,302.7,446.6,302.3z"/>
			<path id="XMLID_3152_" class="st126" d="M441.2,297.3c0.2,0.1,0.3,0.3,0.5,0.4C441.5,297.5,441.4,297.4,441.2,297.3z"/>
			<path id="XMLID_3151_" class="st126" d="M448.2,304c0.3,0.4,0.7,0.8,1,1.1C448.9,304.8,448.5,304.4,448.2,304z"/>
			<path id="XMLID_3150_" class="st126" d="M442.8,298.7c0.2,0.2,0.4,0.3,0.6,0.5C443.2,299,443,298.8,442.8,298.7z"/>
			<path id="XMLID_3149_" class="st126" d="M449.7,305.8c-0.2-0.2-0.4-0.4-0.5-0.6c-0.3-0.4-0.7-0.8-1-1.1c-0.2-0.2-0.4-0.5-0.7-0.7
				c-0.3-0.3-0.6-0.7-0.9-1c-0.2-0.2-0.5-0.5-0.7-0.7c-0.5-0.5-1-1-1.4-1.4c-0.3-0.3-0.7-0.7-1.1-1c-0.2-0.2-0.4-0.4-0.6-0.5
				c-0.4-0.3-0.7-0.7-1.1-1c-0.2-0.1-0.3-0.3-0.5-0.4c-0.4-0.4-0.8-0.7-1.2-1c20.6,39.7,7.1,94.5-33.4,133.4
				c-3.2,3.1-6.7,6.1-10.3,9c-17.9,14.4-37.8,24.1-57.6,29c-22.3,5.5-46.1-2.1-60.6-19.9c-0.1-0.1-0.2-0.2-0.3-0.3
				c-17.6-21.8-22.1-50.6-15.2-79.4c2.9-12-4-24.1-15.7-27.9c-8.9-2.9-16.6-7.8-22.4-14.9c-19.5-24.2-9.9-64.9,20.8-95.5
				c-3.8,2.4-7.5,5.1-11.1,8c-38.6,31.1-52.5,78-31,104.7c5.8,7.1,13.4,12.1,22.4,14.9c11.8,3.8,18.6,15.8,15.7,27.9
				c-6.9,28.8-2.4,57.6,15.2,79.4c34.5,42.7,106,42.2,159.7-1.2c3.6-2.9,7-5.9,10.3-9c45.4-43.5,56.8-107,24.7-146.8
				C450.7,307,450.2,306.4,449.7,305.8z"/>
			<path id="XMLID_3148_" class="st125" d="M291,212.4c0.2,0,0.4,0,0.7-0.1C291.4,212.4,291.2,212.4,291,212.4z"/>
			<path id="XMLID_3147_" class="st125" d="M245.3,229.7c1-0.7,2.1-1.3,3.2-2C247.4,228.4,246.3,229,245.3,229.7z"/>
			<path id="XMLID_3146_" class="st125" d="M298.8,211.8c0.3,0,0.5,0,0.8,0C299.3,211.8,299,211.8,298.8,211.8z"/>
			<path id="XMLID_3145_" class="st125" d="M296.1,211.9c0.2,0,0.3,0,0.5,0C296.5,211.9,296.3,211.9,296.1,211.9z"/>
			<path id="XMLID_3144_" class="st125" d="M249.5,227.1c0.7-0.4,1.5-0.9,2.2-1.3C250.9,226.3,250.2,226.7,249.5,227.1z"/>
			<path id="XMLID_3143_" class="st125" d="M252.8,225.2c0.7-0.4,1.4-0.8,2.1-1.1C254.2,224.5,253.5,224.8,252.8,225.2z"/>
			<path id="XMLID_3142_" class="st125" d="M270.4,217.3c0.6-0.2,1.2-0.4,1.9-0.6C271.6,216.9,271,217.1,270.4,217.3z"/>
			<path id="XMLID_3141_" class="st125" d="M267,218.6c0.6-0.3,1.3-0.5,1.9-0.7C268.3,218.1,267.7,218.3,267,218.6z"/>
			<path id="XMLID_3140_" class="st125" d="M256.1,223.5c0.8-0.4,1.5-0.8,2.3-1.1C257.6,222.7,256.9,223.1,256.1,223.5z"/>
			<path id="XMLID_3139_" class="st125" d="M263.4,220.1c0.8-0.3,1.6-0.7,2.3-1C265,219.4,264.2,219.7,263.4,220.1z"/>
			<path id="XMLID_3138_" class="st125" d="M284.7,213.4c0.5-0.1,0.9-0.2,1.4-0.3C285.6,213.2,285.2,213.3,284.7,213.4z"/>
			<path id="XMLID_3137_" class="st125" d="M287.9,212.9c0.4-0.1,0.8-0.1,1.3-0.2C288.7,212.7,288.3,212.8,287.9,212.9z"/>
			<path id="XMLID_3136_" class="st125" d="M281.4,214.1c0.5-0.1,1-0.2,1.6-0.3C282.5,213.9,282,214,281.4,214.1z"/>
			<path id="XMLID_3135_" class="st125" d="M273.6,216.2c0.7-0.2,1.3-0.4,2-0.6C275,215.8,274.3,216,273.6,216.2z"/>
			<path id="XMLID_3134_" class="st125" d="M259.3,221.9c1.1-0.5,2.1-1,3.2-1.5C261.5,220.9,260.4,221.4,259.3,221.9z"/>
			<path id="XMLID_3133_" class="st125" d="M277.2,215.2c0.9-0.2,1.8-0.5,2.7-0.7C279,214.7,278.1,215,277.2,215.2z"/>
			<path id="XMLID_3132_" class="st125" d="M409,280c0.7,0.2,1.4,0.4,2,0.6C410.3,280.4,409.6,280.2,409,280z"/>
			<path id="XMLID_3131_" class="st125" d="M406.7,279.3c0.4,0.1,0.8,0.2,1.2,0.3C407.4,279.6,407,279.4,406.7,279.3z"/>
			<path id="XMLID_3130_" class="st125" d="M412.3,281c0.3,0.1,0.6,0.2,1,0.3C412.9,281.2,412.6,281.1,412.3,281z"/>
			<path id="XMLID_3129_" class="st125" d="M401.9,278.2c0.4,0.1,0.9,0.2,1.3,0.3C402.7,278.4,402.3,278.3,401.9,278.2z"/>
			<path id="XMLID_3128_" class="st125" d="M398.6,277.6c0.8,0.1,1.5,0.3,2.2,0.4C400.1,277.8,399.4,277.7,398.6,277.6z"/>
			<path id="XMLID_3127_" class="st125" d="M414.5,281.8c0.3,0.1,0.6,0.2,0.9,0.3C415.1,282,414.8,281.9,414.5,281.8z"/>
			<path id="XMLID_3126_" class="st125" d="M404.3,278.8c0.4,0.1,0.8,0.2,1.2,0.3C405.1,278.9,404.7,278.9,404.3,278.8z"/>
			<path id="XMLID_3125_" class="st125" d="M396.2,277.2c0.5,0.1,1.1,0.2,1.6,0.3C397.3,277.3,396.7,277.2,396.2,277.2z"/>
			<path id="XMLID_3124_" class="st125" d="M416.7,282.6c0.3,0.1,0.5,0.2,0.8,0.3C417.2,282.8,416.9,282.7,416.7,282.6z"/>
			<path id="XMLID_3123_" class="st125" d="M433.1,291.1c0.2,0.1,0.3,0.2,0.5,0.3C433.4,291.3,433.2,291.2,433.1,291.1z"/>
			<path id="XMLID_3122_" class="st125" d="M434.9,292.3c0.1,0.1,0.3,0.2,0.4,0.3C435.2,292.5,435.1,292.4,434.9,292.3z"/>
			<path id="XMLID_3121_" class="st125" d="M431.5,290c0.1,0,0.1,0.1,0.2,0.1C431.6,290.1,431.5,290.1,431.5,290z"/>
			<path id="XMLID_3120_" class="st125" d="M422.2,285c0.2,0.1,0.4,0.2,0.6,0.3C422.5,285.1,422.4,285,422.2,285z"/>
			<path id="XMLID_3119_" class="st125" d="M424.1,285.9c0.2,0.1,0.4,0.2,0.6,0.3C424.5,286.1,424.3,286,424.1,285.9z"/>
			<path id="XMLID_3118_" class="st125" d="M426.1,286.9c0.2,0.1,0.4,0.2,0.5,0.3C426.5,287.1,426.3,287,426.1,286.9z"/>
			<path id="XMLID_3117_" class="st125" d="M380.2,275.9c0.6,0,1.2,0,1.7,0C381.3,275.9,380.8,275.9,380.2,275.9z"/>
			<polygon id="XMLID_3116_" class="st125" points="330.7,219.1 330.7,219.1 330.7,219.1 			"/>
			<path id="XMLID_3115_" class="st125" d="M328.6,217.9c0.1,0,0.1,0.1,0.2,0.1C328.7,218,328.6,218,328.6,217.9z"/>
			<polygon id="XMLID_3114_" class="st125" points="352.4,250.8 352.4,250.8 352.4,250.8 			"/>
			<path id="XMLID_3113_" class="st125" d="M304.6,211.9c0.1,0,0.2,0,0.4,0C304.8,211.9,304.7,211.9,304.6,211.9z"/>
			<path id="XMLID_3112_" class="st125" d="M393.7,276.8c0.5,0.1,1,0.1,1.5,0.2C394.7,276.9,394.2,276.9,393.7,276.8z"/>
			<path id="XMLID_3111_" class="st125" d="M352.7,252.7C352.7,252.7,352.7,252.7,352.7,252.7C352.7,252.7,352.7,252.7,352.7,252.7z
				"/>
			<path id="XMLID_3110_" class="st125" d="M314.7,213.1c0.1,0,0.2,0,0.3,0.1C314.9,213.2,314.8,213.2,314.7,213.1z"/>
			<path id="XMLID_3109_" class="st125" d="M317.2,213.7c0.1,0,0.1,0,0.2,0.1C317.4,213.8,317.3,213.7,317.2,213.7z"/>
			<path id="XMLID_3108_" class="st125" d="M387.9,276.2c0.8,0.1,1.6,0.1,2.4,0.2C389.5,276.3,388.7,276.3,387.9,276.2z"/>
			<path id="XMLID_3107_" class="st125" d="M385.4,276.1c0.7,0,1.4,0.1,2.1,0.1C386.8,276.1,386.1,276.1,385.4,276.1z"/>
			<path id="XMLID_3106_" class="st125" d="M391.1,276.5c0.5,0.1,1.1,0.1,1.6,0.2C392.2,276.6,391.7,276.6,391.1,276.5z"/>
			<path id="XMLID_3104_" class="st125" d="M376.8,275.9c0.8,0,1.7,0,2.5,0C378.5,275.9,377.7,275.9,376.8,275.9z"/>
			<path id="XMLID_3103_" class="st125" d="M301.7,211.8c0.2,0,0.5,0,0.7,0C302.2,211.8,301.9,211.8,301.7,211.8z"/>
			<path id="XMLID_3102_" class="st125" d="M382.8,276c0.6,0,1.1,0,1.7,0.1C383.9,276,383.4,276,382.8,276z"/>
			<path id="XMLID_3101_" class="st125" d="M435.3,292.6c-0.1-0.1-0.3-0.2-0.4-0.3c-0.4-0.3-0.9-0.6-1.4-0.9
				c-0.2-0.1-0.3-0.2-0.5-0.3c-0.5-0.3-0.9-0.6-1.4-0.9c-0.1,0-0.1-0.1-0.2-0.1c-1.4-0.9-3.8-2.3-5.3-3.1c0,0,0,0-0.1,0
				c-0.5-0.2-0.9-0.5-1.4-0.7c-0.2-0.1-0.4-0.2-0.6-0.3c-0.5-0.2-0.9-0.5-1.4-0.7c-0.2-0.1-0.4-0.2-0.6-0.3c-1.5-0.7-3.1-1.4-4.7-2
				c-0.3-0.1-0.5-0.2-0.8-0.3c-0.4-0.2-0.9-0.3-1.3-0.5c-0.3-0.1-0.6-0.2-0.9-0.3c-0.4-0.2-0.9-0.3-1.3-0.5c-0.3-0.1-0.6-0.2-1-0.3
				c-0.4-0.1-0.8-0.3-1.3-0.4c-0.7-0.2-1.3-0.4-2-0.6c-0.4-0.1-0.8-0.2-1.1-0.3c-0.4-0.1-0.8-0.2-1.2-0.3c-0.4-0.1-0.8-0.2-1.2-0.3
				c-0.4-0.1-0.8-0.2-1.2-0.3c-0.4-0.1-0.8-0.2-1.1-0.3c-0.4-0.1-0.9-0.2-1.3-0.3c-0.3-0.1-0.7-0.1-1-0.2c-0.7-0.2-1.5-0.3-2.2-0.4
				c-0.3,0-0.5-0.1-0.8-0.1c-0.5-0.1-1.1-0.2-1.6-0.3c-0.3-0.1-0.7-0.1-1-0.1c-0.5-0.1-1-0.1-1.5-0.2c-0.3,0-0.7-0.1-1-0.1
				c-0.5-0.1-1.1-0.1-1.6-0.2c-0.3,0-0.6-0.1-0.8-0.1c-0.8-0.1-1.6-0.1-2.4-0.2c-0.1,0-0.3,0-0.4,0c-0.7,0-1.4-0.1-2.1-0.1
				c-0.3,0-0.6,0-0.9,0c-0.6,0-1.1,0-1.7-0.1c-0.3,0-0.6,0-0.9,0c-0.6,0-1.2,0-1.7,0c-0.3,0-0.5,0-0.8,0c-0.8,0-1.7,0-2.5,0
				c-12.3,0.3-22.7-9-23.9-21.3c-0.1-0.6-0.1-1.3-0.2-1.9c0,0,0,0,0-0.1c-0.1-0.6-0.2-1.2-0.3-1.9l0,0c-1.3-7.8-4.4-15-9.3-21.2
				c-3.5-4.3-7.6-7.8-12.3-10.5l0,0c-0.7-0.4-1.3-0.7-2-1.1c-0.1,0-0.1-0.1-0.2-0.1c-3.5-1.8-7.2-3.2-11.1-4.2c-0.1,0-0.1,0-0.2-0.1
				c-0.7-0.2-1.5-0.4-2.2-0.5c-0.1,0-0.2,0-0.3-0.1c-3.1-0.6-6.4-1.1-9.7-1.2c-0.1,0-0.2,0-0.4,0c-0.7,0-1.4-0.1-2.2-0.1
				c-0.2,0-0.5,0-0.7,0c-0.7,0-1.4,0-2.1,0c-0.3,0-0.5,0-0.8,0c-0.7,0-1.4,0-2.1,0.1c-0.2,0-0.3,0-0.5,0c-1.5,0.1-3,0.2-4.5,0.4
				c-0.2,0-0.4,0-0.7,0.1c-0.6,0.1-1.3,0.2-1.9,0.3c-0.4,0.1-0.8,0.1-1.3,0.2c-0.6,0.1-1.2,0.2-1.8,0.3c-0.5,0.1-0.9,0.2-1.4,0.3
				c-0.6,0.1-1.1,0.2-1.7,0.3c-0.5,0.1-1,0.2-1.6,0.3c-0.5,0.1-1.1,0.2-1.6,0.4c-0.9,0.2-1.8,0.5-2.7,0.7c-0.5,0.1-1,0.3-1.5,0.4
				c-0.7,0.2-1.3,0.4-2,0.6c-0.5,0.1-0.9,0.3-1.4,0.5c-0.6,0.2-1.2,0.4-1.9,0.6c-0.5,0.2-0.9,0.3-1.4,0.5c-0.6,0.2-1.3,0.5-1.9,0.7
				c-0.4,0.2-0.9,0.3-1.3,0.5c-0.8,0.3-1.6,0.6-2.3,1c-0.3,0.1-0.6,0.2-0.9,0.4c-1.1,0.5-2.1,0.9-3.2,1.5c-0.3,0.2-0.6,0.3-1,0.5
				c-0.8,0.4-1.5,0.7-2.3,1.1c-0.4,0.2-0.8,0.4-1.2,0.6c-0.7,0.4-1.4,0.7-2.1,1.1c-0.4,0.2-0.8,0.4-1.2,0.7
				c-0.7,0.4-1.5,0.8-2.2,1.3c-0.3,0.2-0.7,0.4-1,0.6c-1.1,0.6-2.1,1.3-3.2,2c-30.7,30.6-40.3,71.4-20.8,95.5
				c5.8,7.1,13.4,12.1,22.4,14.9c11.8,3.8,18.6,15.8,15.7,27.9c-6.9,28.8-2.4,57.6,15.2,79.4c0.1,0.1,0.2,0.2,0.3,0.3
				c14.5,17.8,38.3,25.4,60.6,19.9c19.8-4.9,39.7-14.6,57.6-29c3.6-2.9,7-5.9,10.3-9c40.6-38.9,54-93.7,33.4-133.4
				C438.5,295,436.9,293.8,435.3,292.6z"/>
			<path id="XMLID_3100_" class="st2" d="M325,289.9c11.1,13.8,11,33,0.8,46.6c-1.8,2.4-4,4.7-6.5,6.7
				c-16.3,13.1-40.1,10.6-53.2-5.7c-13.1-16.3-10.6-40.1,5.7-53.2c2.5-2,5.1-3.6,7.9-4.9C295,272.2,313.9,276.1,325,289.9z"/>
			
				<ellipse id="XMLID_3099_" transform="matrix(0.7783 -0.6279 0.6279 0.7783 -126.2235 258.3073)" class="st127" cx="302.7" cy="307.9" rx="28.6" ry="36.7"/>
			
				<ellipse id="XMLID_3098_" transform="matrix(0.5261 -0.8504 0.8504 0.5261 -54.9394 496.524)" class="st128" cx="418" cy="297.6" rx="9.8" ry="12.1"/>
			
				<ellipse id="XMLID_3097_" transform="matrix(0.9602 -0.2794 0.2794 0.9602 -71.2482 134.2289)" class="st128" cx="435.2" cy="317" rx="6.2" ry="7.7"/>
			
				<ellipse id="XMLID_3095_" transform="matrix(0.5261 -0.8504 0.8504 0.5261 -46.4705 377.8851)" class="st128" cx="315.8" cy="230.6" rx="9.8" ry="12.1"/>
			
				<ellipse id="XMLID_3094_" transform="matrix(0.9602 -0.2794 0.2794 0.9602 -56.6209 103.003)" class="st128" cx="333" cy="250.1" rx="6.2" ry="7.7"/>
			<path id="XMLID_3093_" class="st4" d="M411.3,377.2l5.4,6.7c0.6,0.8,1.1,1.6,1.4,2.5c1.2,3.4,0.2,7.3-2.7,9.6l-64.8,52.2
				c-2.9,2.4-7,2.5-10,0.6c-0.8-0.5-1.5-1.1-2.2-1.9l-5.4-6.7c-3-3.7-2.4-9.2,1.3-12.2l64.8-52.2
				C402.8,372.9,408.3,373.5,411.3,377.2z"/>
			<path id="XMLID_3092_" class="st129" d="M418.1,386.5c1.2,3.4,0.2,7.3-2.7,9.6l-64.8,52.2c-2.9,2.4-7,2.5-10,0.6
				c-1.2-3.4-0.2-7.3,2.7-9.6l64.8-52.2C411.1,384.7,415.1,384.6,418.1,386.5z"/>
			<g id="XMLID_3090_">
				<path id="XMLID_3091_" class="st130" d="M363.2,428.5L363.2,428.5c-1.1,0.9-2.8,0.7-3.7-0.4l-254.9-316
					c-0.9-1.1-0.7-2.8,0.4-3.7l0,0c1.1-0.9,2.8-0.7,3.7,0.4l254.9,316C364.5,426,364.4,427.6,363.2,428.5z"/>
			</g>
			<g id="XMLID_3082_">
				<path id="XMLID_3089_" class="st130" d="M378.3,416.4L378.3,416.4c-1.1,0.9-2.8,0.7-3.7-0.4L119.7,100c-0.9-1.1-0.7-2.8,0.4-3.7
					l0,0c1.1-0.9,2.8-0.7,3.7,0.4l254.9,316C379.6,413.8,379.5,415.5,378.3,416.4z"/>
			</g>
			<g id="XMLID_3080_">
				<path id="XMLID_3081_" class="st130" d="M394.6,403.3L394.6,403.3c-1.1,0.9-2.8,0.7-3.7-0.4L136,86.9c-0.9-1.1-0.7-2.8,0.4-3.7
					v0c1.1-0.9,2.8-0.7,3.7,0.4l254.9,316C395.9,400.7,395.7,402.3,394.6,403.3z"/>
			</g>
			<path id="XMLID_3079_" class="st131" d="M99.6,21.2l39.3,48.7c0.5,0.6,0.9,1.2,1.3,1.9c3.2,5.6,1.9,12.9-3.3,17.1l-28.2,22.7
				c-5.8,4.7-14.3,3.8-19-2L50.4,60.9c-4-4.9-3.9-11.7-0.3-16.6c0.7-0.9,1.4-1.7,2.3-2.4l28.2-22.7C86.4,14.5,94.9,15.4,99.6,21.2z"
				/>
			<path id="XMLID_3078_" class="st125" d="M99.6,21.2l39.3,48.7c0.5,0.6,0.9,1.2,1.3,1.9c-0.7,0.9-1.4,1.7-2.3,2.4l-28.2,22.7
				c-5.8,4.7-14.3,3.8-19-2L51.4,46.1c-0.5-0.6-0.9-1.2-1.3-1.9c0.7-0.9,1.4-1.7,2.3-2.4l28.2-22.7C86.4,14.5,94.9,15.4,99.6,21.2z"
				/>
			<path id="XMLID_3077_" class="st130" d="M90.2,110.2l-10.5,8.5c-2.8,2.2-6.9,1.8-9.1-1l-3.3-4.1c-2.2-2.8-1.8-6.9,1-9.1L78.8,96
				L90.2,110.2z"/>
			<path id="XMLID_3076_" class="st130" d="M75.8,92.3l-10.5,8.5c-2.8,2.2-6.9,1.8-9.1-1l-3.3-4.1c-2.2-2.8-1.8-6.9,1-9.1l10.5-8.5
				L75.8,92.3z"/>
			<path id="XMLID_3075_" class="st130" d="M61.7,74.8l-10.5,8.5c-2.8,2.2-6.9,1.8-9.1-1l-3.3-4.1c-2.2-2.8-1.8-6.9,1-9.1l10.5-8.5
				L61.7,74.8z"/>
			
				<ellipse id="XMLID_2433_" transform="matrix(0.8029 -0.5962 0.5962 0.8029 -6.0889 65.6881)" class="st128" cx="96.3" cy="42.1" rx="9.8" ry="12.1"/>
			
				<ellipse id="XMLID_2432_" transform="matrix(0.8029 -0.5962 0.5962 0.8029 -15.4285 80.1745)" class="st128" cx="113.5" cy="63.4" rx="6.5" ry="8.1"/>
		</g>
		<path id="XMLID_2430_" class="st35" d="M156.8,263.1c0-2.1-1.4-3.9-3.4-4.5l-34.9-9.8c-3-0.8-5.9,1.4-5.9,4.5v42.1
			c-2.6-1.1-5.7-1.8-8.9-1.8c-9.4,0-17,5.3-17,11.8s7.6,11.8,17,11.8s17-5.3,17-11.8c0,0,0,0,0,0v-41.6c0-3.1,2.9-5.3,5.9-4.5
			l18.9,5.3c2,0.6,3.4,2.4,3.4,4.5v34.5c-2.6-1.1-5.7-1.8-9-1.8c-9.4,0-17,5.3-17,11.8s7.6,11.8,17,11.8s17-5.3,17-11.8v0l0,0V263.1
			z"/>
		<path id="XMLID_2429_" class="st2" d="M238.7,33.6c-1.2-1.7-3.3-2.5-5.3-1.8l-34.5,11.2c-2.9,0.9-4.1,4.4-2.4,7L219.8,85
			c-2.8,0.5-5.7,1.6-8.4,3.5c-7.8,5.2-11.2,13.8-7.6,19.2c3.6,5.4,12.9,5.6,20.7,0.5s11.2-13.8,7.6-19.2c0,0,0,0,0,0l-23-34.6
			c-1.7-2.6-0.5-6,2.4-7l18.7-6.1c2-0.6,4.1,0.1,5.3,1.8l19.1,28.7c-2.8,0.5-5.7,1.6-8.4,3.5c-7.8,5.2-11.2,13.8-7.6,19.2
			c3.6,5.4,12.9,5.6,20.7,0.5c7.8-5.2,11.2-13.8,7.6-19.2l0,0l0,0L238.7,33.6z"/>
		<path id="XMLID_2428_" class="st31" d="M476.3,210c0.8-1.9,0.2-4.1-1.5-5.4l-28.7-22.2c-2.4-1.9-6-0.9-7.1,1.9l-15.8,39
			c-2-2-4.6-3.8-7.6-5c-8.7-3.5-17.7-1.5-20.2,4.6s2.6,13.8,11.3,17.3c8.7,3.5,17.7,1.5,20.2-4.6c0,0,0,0,0,0l15.6-38.5
			c1.2-2.8,4.7-3.8,7.1-1.9l15.5,12c1.6,1.3,2.2,3.5,1.5,5.4l-13,31.9c-2-2-4.6-3.8-7.6-5c-8.7-3.5-17.7-1.5-20.2,4.6
			s2.6,13.8,11.3,17.3s17.7,1.5,20.2-4.6c0,0,0,0,0,0l0,0L476.3,210z"/>
	</g>
</g>
</svg>
